<svg xmlns="http://www.w3.org/2000/svg" baseProfile="full" version="1.1" width="1470px" height="750px" style="fill: none; width: 1470px; height: 750px;"><path d="M120,90 L120,90 L105,105 L120,120 L135,105 M120,90 L120,90 L135,105 M105,75 L105,75 L120,45 L135,75 M105,60 L105,60 L135,60 M120,165 L120,165 L135,165 L135,180 L120,180 L120,195 L135,195 M120,210 L120,210 L105,225 L120,240 L135,225 L120,210 M120,285 L120,285 L135,285 L135,300 L120,300 L135,300 L135,315 L120,315 M120,330 L120,330 L105,345 L120,360 L135,345 L120,330 M120,450 L120,450 L105,465 L120,480 L135,465 L120,450 M120,570 L120,570 L105,585 L120,600 L135,585 L120,570 M120,690 L120,690 L105,705 L120,720 L135,705 L120,690 M120,405 L120,405 L120,420 L135,420 L135,405 L135,420 L135,435 M135,525 L135,525 L120,525 L120,540 L135,540 L135,555 L120,555 M135,645 L135,645 L120,645 L120,660 L120,675 L135,675 L135,660 L120,660 M195,90 L195,90 L180,105 L195,120 L210,105 L195,90 M195,210 L195,210 L180,225 L195,240 L210,225 L195,210 M195,330 L195,330 L180,345 L195,360 L210,345 L195,330 M195,450 L195,450 L180,465 L195,480 L210,465 L195,450 M195,570 L195,570 L180,585 L180,585 L195,600 L210,585 L195,570 M195,690 L195,690 L180,705 L195,720 L210,705 L195,690 M195,45 L195,45 L210,45 L210,60 L195,75 M195,165 L195,165 L210,165 L210,180 L195,180 L195,165 L195,195 L210,195 L210,180 M210,300 L210,300 L210,285 L195,285 L195,300 L210,300 L210,315 L195,315 M180,405 L180,405 L180,435 M195,405 L195,405 L195,435 L210,435 L210,405 L195,405 L210,435 M195,645 L195,645 L195,675 L210,675 L210,645 L195,645 M210,675 L210,675 L195,660 M270,90 L270,90 L255,105 L270,120 L285,105 L270,90 M270,45 L270,45 L270,75 L270,60 L285,45 M270,60 L270,60 L285,75 M420,285 L420,285 L405,315 M435,315 L435,315 L420,285 M405,300 L405,300 L435,300 M420,405 L420,405 L435,405 L435,420 L420,420 L420,435 L435,435 M420,525 L420,525 L435,525 L435,540 L420,540 M435,540 L435,540 L435,555 L420,555 M435,315 M420,465 Q435,450 435,465 Q420,495 405,465 Q405,450 420,465 M420,585 Q435,570 435,585 Q420,615 405,585 Q405,570 420,585 M420,645 L420,645 L420,660 L435,660 L435,645 M435,660 L435,660 L435,675 M420,705 Q435,690 435,705 Q420,735 405,705 Q405,690 420,705 M495,105 Q510,90 510,105 Q495,135 480,105 Q480,90 495,105 M495,225 Q510,210 510,225 Q495,255 480,225 Q480,210 495,225 M495,345 Q510,330 510,345 Q495,375 480,345 Q480,330 495,345 M495,465 Q510,450 510,465 Q495,495 480,465 Q480,450 495,465 M495,585 Q510,570 510,585 Q495,615 480,585 Q480,570 495,585 M510,45 L510,45 L495,45 L495,60 L510,60 L510,75 L495,75 M510,165 L510,165 L495,165 L495,195 L510,195 L510,180 L495,180 M495,285 L495,285 L510,285 L510,300 L495,315 M495,405 L495,405 L495,420 L510,420 L510,405 L495,405 M495,420 L495,420 L495,435 L510,435 L510,420 M510,525 L510,525 L495,525 L495,540 L510,540 L510,525 M510,540 L510,540 L510,555 L495,555 M480,645 L480,645 L480,675 M495,645 L495,645 L495,675 L510,675 L510,645 L495,645 L510,675 M570,165 L570,165 L570,195 L585,195 L585,165 L570,165 M570,180 L570,180 L585,195 M570,285 L570,285 L570,315 M570,300 L570,300 L585,285 M570,300 L570,300 L585,315 M495,705 Q510,690 510,705 Q495,735 480,705 Q480,690 495,705 M570,105 Q585,90 585,105 Q570,135 555,105 Q555,90 570,105 M570,225 Q585,210 585,225 Q570,255 555,225 Q555,210 570,225 M570,345 Q585,330 585,345 Q570,375 555,345 Q555,330 570,345 M420,345 Q435,330 435,345 Q420,375 405,345 Q405,330 420,345 M795,105 Q810,105 810,90 Q795,90 795,105 Q795,120 780,120 Q780,105 795,105 M795,60 Q795,75 810,75 Q810,60 795,60 Q780,60 780,45 Q795,45 795,60 M705,690 L705,690 L705,720 L735,720 L735,690 L720,705 L705,690 M705,540 A15,15 0 0,1 720,555 A15,15 0 0,1 735,540 A15,15 0 0,1 720,525 A15,15 0 0,1 705,540 M210,525 L210,525 L210,555 L195,555 L195,540 M585,45 L585,45 L585,75 L570,75 L570,60 " style="stroke-width: 6; stroke-linecap: round; stroke-linejoin: round; stroke: rgb(204, 17, 0); fill: none;"/><path d="M255,195 L255,195 L270,165 L285,195 M255,180 L255,180 L285,180 M270,285 L270,285 L285,285 L285,300 L270,300 L270,315 L285,315 M270,405 L270,405 L285,405 L285,420 L270,420 M285,420 L285,420 L285,435 L270,435 M270,525 L270,525 L270,540 L285,540 L285,525 M285,540 L285,540 L285,555 M285,645 L285,645 L270,645 L270,660 L285,660 L285,675 L270,675 M270,225 Q270,210 285,210 Q285,225 270,225 M255,210 Q255,225 270,225 Q270,210 255,210 M270,225 A15,15 0 0,0 255,240 L270,240 L285,240 A15,15 0 0,0 270,225 M270,345 Q270,330 285,330 Q285,345 270,345 M255,330 Q255,345 270,345 Q270,330 255,330 M270,345 A15,15 0 0,0 255,360 L270,360 L285,360 A15,15 0 0,0 270,345 M270,465 Q270,450 285,450 Q285,465 270,465 M255,450 Q255,465 270,465 Q270,450 255,450 M270,465 A15,15 0 0,0 255,480 L285,480 A15,15 0 0,0 270,465 M270,585 Q285,585 285,570 Q270,570 270,585 M255,570 Q255,585 270,585 Q270,570 255,570 M270,585 A15,15 0 0,0 255,600 L285,600 A15,15 0 0,0 270,585 M270,705 Q285,705 285,690 Q270,690 270,705 M255,690 Q255,705 270,705 Q270,690 255,690 M270,705 A15,15 0 0,0 255,720 L285,720 A15,15 0 0,0 270,705 M360,45 L360,45 L345,45 L345,75 L360,75 L360,60 L345,60 M345,105 Q360,105 360,90 Q345,90 345,105 M330,90 Q330,105 345,105 Q345,90 330,90 M345,105 A15,15 0 0,0 330,120 L360,120 A15,15 0 0,0 345,105 M345,165 L345,165 L360,165 L360,180 L345,195 M345,285 L345,285 L345,300 L360,300 L360,285 L345,285 M345,300 L345,300 L345,315 L360,315 L360,300 M360,405 L360,405 L345,405 L345,420 L360,420 M360,405 L360,405 L360,435 L345,435 M330,525 L330,525 L330,555 M345,525 L345,525 L345,555 L360,555 L360,525 L345,525 L360,555 M345,225 Q360,225 360,210 Q345,210 345,225 M330,210 Q330,225 345,225 Q345,210 330,210 M345,225 A15,15 0 0,0 330,240 L360,240 A15,15 0 0,0 345,225 M345,345 Q360,345 360,330 Q345,330 345,345 M330,330 Q330,345 345,345 Q345,330 330,330 M345,345 A15,15 0 0,0 330,360 L360,360 A15,15 0 0,0 345,345 M345,465 Q360,465 360,450 Q345,450 345,465 M330,450 Q330,465 345,465 Q345,450 330,450 M345,465 A15,15 0 0,0 330,480 L360,480 A15,15 0 0,0 345,465 M345,585 Q360,585 360,570 Q345,570 345,585 M330,570 Q330,585 345,585 Q345,570 330,570 M345,585 A15,15 0 0,0 330,600 L360,600 A15,15 0 0,0 345,585 M345,705 Q360,705 360,690 Q345,690 345,705 M330,690 Q330,705 345,705 Q345,690 330,690 M345,705 A15,15 0 0,0 330,720 L360,720 A15,15 0 0,0 345,705 M420,45 L420,45 L420,75 L435,75 L435,45 L420,45 M420,60 L420,60 L435,75 M420,105 Q435,105 435,90 Q420,90 420,105 M405,90 Q405,105 420,105 Q420,90 405,90 M420,105 A15,15 0 0,0 405,120 L435,120 A15,15 0 0,0 420,105 M420,165 L420,165 L420,195 M420,180 L420,180 L435,165 M420,180 L420,180 L435,195 M420,225 Q435,225 435,210 Q420,210 420,225 M405,210 Q405,225 420,225 Q420,210 405,210 M420,225 A15,15 0 0,0 405,240 L435,240 A15,15 0 0,0 420,225 M570,405 L570,405 L555,435 M570,405 L570,405 L585,435 M555,420 L555,420 L585,420 M570,525 L570,525 L585,525 L585,540 L570,540 L570,555 L585,555 M570,645 L570,645 L585,645 L585,660 L570,660 M585,660 L585,660 L585,675 L570,675 M645,45 L645,45 L645,60 L660,60 L660,45 M660,60 L660,60 L660,75 M660,165 L660,165 L645,165 L645,180 L660,180 L660,195 L645,195 M660,285 L660,285 L645,285 L645,300 L645,315 L660,315 L660,300 L645,300 M645,405 L645,405 L660,405 L660,420 L645,435 M660,525 L660,525 L645,525 L645,540 L660,540 L660,525 M645,540 L645,540 L645,555 L660,555 L660,540 M660,660 L660,660 L660,645 L645,645 L645,660 L660,660 L660,675 L645,675 M705,45 L705,45 L705,75 M720,45 L720,45 L720,75 L735,75 L735,45 L720,45 L735,75 M720,285 L720,285 L720,315 L735,315 L735,285 L720,285 M720,300 L720,300 L735,315 M720,405 L720,405 L720,435 M720,420 L720,420 L735,405 M720,420 L720,420 L735,435 M645,105 A15,15 0 0,1 660,90 L660,105 A15,15 0 0,1 645,120 A15,15 0 0,1 630,105 L630,90 A15,15 0 0,1 645,105 M570,465 A15,15 0 0,1 585,450 L585,465 A15,15 0 0,1 570,480 A15,15 0 0,1 555,465 L555,450 A15,15 0 0,1 570,465 M570,585 A15,15 0 0,1 585,570 L585,585 A15,15 0 0,1 570,600 A15,15 0 0,1 555,585 L555,570 A15,15 0 0,1 570,585 M570,705 A15,15 0 0,1 585,690 L585,705 A15,15 0 0,1 570,720 A15,15 0 0,1 555,705 L555,690 A15,15 0 0,1 570,705 M645,225 A15,15 0 0,1 660,210 L660,225 A15,15 0 0,1 645,240 A15,15 0 0,1 630,225 L630,210 A15,15 0 0,1 645,225 M645,345 A15,15 0 0,1 660,330 L660,345 A15,15 0 0,1 645,360 A15,15 0 0,1 630,345 L630,330 A15,15 0 0,1 645,345 M645,465 A15,15 0 0,1 660,450 L660,465 A15,15 0 0,1 645,480 A15,15 0 0,1 630,465 L630,450 A15,15 0 0,1 645,465 M645,585 A15,15 0 0,1 660,570 L660,585 A15,15 0 0,1 645,600 A15,15 0 0,1 630,585 L630,570 A15,15 0 0,1 645,585 M645,705 A15,15 0 0,1 660,690 L660,705 A15,15 0 0,1 645,720 A15,15 0 0,1 630,705 L630,690 A15,15 0 0,1 645,705 M720,105 A15,15 0 0,1 735,90 L735,105 A15,15 0 0,1 720,120 A15,15 0 0,1 705,105 L705,90 A15,15 0 0,1 720,105 M720,225 A15,15 0 0,1 735,210 L735,225 A15,15 0 0,1 720,240 A15,15 0 0,1 705,225 L705,210 A15,15 0 0,1 720,225 M720,345 A15,15 0 0,1 735,330 L735,345 A15,15 0 0,1 720,360 A15,15 0 0,1 705,345 L705,330 A15,15 0 0,1 720,345 M720,465 A15,15 0 0,1 735,450 L735,465 A15,15 0 0,1 720,480 A15,15 0 0,1 705,465 L705,450 A15,15 0 0,1 720,465 M795,105 Q795,120 810,120 Q810,105 795,105 Q780,105 780,90 Q795,90 795,105 M795,60 Q810,60 810,45 Q795,45 795,60 Q795,75 780,75 Q780,60 795,60 M705,600 L705,600 L735,600 L735,570 L720,585 L705,570 L705,600 M720,645 A15,15 0 0,1 705,660 A15,15 0 0,1 720,675 A15,15 0 0,1 735,660 A15,15 0 0,1 720,645 M735,165 L735,165 L735,195 L720,195 L720,180 M360,645 L360,645 L360,675 L345,675 L345,660 " style="stroke-width: 6; stroke-linecap: round; stroke-linejoin: round; stroke: rgb(0, 0, 128); fill: none;"/><path d="M90,30 L90,30 L90,135 L150,135 L150,30 L90,30 M90,150 L90,150 L150,150 L150,255 L90,255 L90,150 M90,270 L90,270 L150,270 L150,375 L90,375 L90,270 M90,390 L90,390 L150,390 L150,495 L90,495 L90,390 M90,510 L90,510 L150,510 L150,615 L90,615 L90,510 M90,630 L90,630 L150,630 L150,735 L90,735 L90,630 M165,30 L165,30 L225,30 L225,135 L165,135 L165,30 M165,150 L165,150 L225,150 L225,255 L165,255 L165,150 M165,270 L165,270 L225,270 L225,375 L165,375 L165,270 M165,390 L165,390 L225,390 L225,495 L165,495 L165,390 M165,510 L165,510 L225,510 L225,615 L165,615 L165,510 M165,630 L165,630 L225,630 L225,735 L165,735 L165,630 M240,30 L240,30 L240,135 L300,135 L300,30 L240,30 M240,150 L240,150 L300,150 L300,255 L240,255 L240,150 M240,270 L240,270 L300,270 L300,375 L240,375 L240,270 M240,390 L240,390 L300,390 L300,495 L240,495 L240,390 M240,510 L240,510 L300,510 L300,615 L240,615 L240,510 M240,630 L240,630 L300,630 L300,735 L240,735 L240,630 M315,30 L315,30 L315,135 L375,135 L375,30 L315,30 M315,150 L315,150 L375,150 L375,255 L315,255 L315,150 M315,270 L315,270 L375,270 L375,375 L315,375 L315,270 M315,390 L315,390 L375,390 L375,495 L315,495 L315,390 M315,510 L315,510 L375,510 L375,615 L315,615 L315,510 M315,630 L315,630 L375,630 L375,735 L315,735 L315,630 M390,30 L390,30 L450,30 L450,135 L390,135 L390,30 M390,150 L390,150 L450,150 L450,255 L390,255 L390,150 M390,270 L390,270 L450,270 L450,375 L390,375 L390,270 M390,390 L390,390 L450,390 L450,495 L390,495 L390,390 M390,510 L390,510 L450,510 L450,615 L390,615 L390,510 M390,630 L390,630 L390,735 L450,735 L450,630 L390,630 M465,30 L465,30 L465,135 L525,135 L525,30 L465,30 M465,150 L465,150 L525,150 L525,255 L465,255 L465,150 M465,270 L465,270 L525,270 L525,375 L465,375 L465,270 M465,390 L465,390 L525,390 L525,495 L465,495 L465,390 M465,510 L465,510 L525,510 L525,615 L465,615 L465,510 M465,630 L465,630 L525,630 L525,735 L465,735 L465,630 M540,30 L540,30 L540,135 L600,135 L600,30 L540,30 M540,150 L540,150 L540,255 L600,255 L600,150 L540,150 M540,270 L540,270 L540,375 L600,375 L600,270 L540,270 M540,390 L540,390 L540,495 L600,495 L600,390 L540,390 M540,510 L540,510 L540,615 L600,615 L600,510 L540,510 M540,630 L540,630 L540,735 L600,735 L600,630 L540,630 M615,30 L615,30 L615,135 L675,135 L675,30 L615,30 M615,150 L615,150 L675,150 L675,255 L615,255 L615,150 M615,270 L615,270 L675,270 L675,375 L615,375 L615,270 M615,390 L615,390 L675,390 L675,495 L615,495 L615,390 M615,510 L615,510 L675,510 L675,615 L615,615 L615,510 M615,630 L615,630 L675,630 L675,735 L615,735 L615,630 M690,30 L690,30 L750,30 L750,135 L690,135 L690,30 M690,150 L690,150 L750,150 L750,255 L690,255 L690,150 M690,270 L690,270 L750,270 L750,375 L690,375 L690,270 M690,390 L690,390 L690,495 L750,495 L750,390 L690,390 M765,135 L765,135 L765,30 L825,30 L825,135 L765,135 M690,510 L690,510 L750,510 L750,615 L690,615 L690,510 M690,630 L690,630 L750,630 L750,735 L690,735 L690,630 M825,210 L825,210 L765,225 L825,240 M765,240 L765,240 L825,255 L765,270 M825,270 L825,270 L765,285 L825,300 L825,300 M765,345 L765,345 L825,360 M765,345 L765,345 L825,330 M825,315 L825,315 L765,315 M765,330 L765,330 L765,300 M825,195 L825,195 L765,195 M765,210 L765,210 L765,180 M825,180 L825,180 L765,165 L825,150 " style="stroke-width: 6; stroke-linecap: round; stroke-linejoin: round; stroke: rgb(10, 10, 10); fill: none;"/></svg>