<?xml version="1.0" encoding="UTF-8" standalone="no"?>
<!-- Created with Inkscape (http://www.inkscape.org/) -->

<svg
   xmlns:dc="http://purl.org/dc/elements/1.1/"
   xmlns:cc="http://creativecommons.org/ns#"
   xmlns:rdf="http://www.w3.org/1999/02/22-rdf-syntax-ns#"
   xmlns:svg="http://www.w3.org/2000/svg"
   xmlns="http://www.w3.org/2000/svg"
   version="1.2"
   width="429.56244"
   height="252.9375"
   id="svg3012">
  <defs
     id="defs3014" />
  <metadata
     id="metadata3017">
    <rdf:RDF>
      <cc:Work
         rdf:about="">
        <dc:format>image/svg+xml</dc:format>
        <dc:type
           rdf:resource="http://purl.org/dc/dcmitype/StillImage" />
        <dc:title></dc:title>
      </cc:Work>
    </rdf:RDF>
  </metadata>
  <g
     transform="translate(-105.21875,-113.53125)"
     id="layer1">
    <g
       transform="translate(90.4375,112.98828)"
       id="flowRoot3020"
       style="font-size:192px;font-style:normal;font-variant:normal;font-weight:normal;font-stretch:normal;line-height:125%;letter-spacing:0px;word-spacing:0px;fill:#000000;fill-opacity:1;stroke:none;font-family:Tengwar Annatar;-inkscape-font-specification:Tengwar Annatar">
      <path
         d="m 50.6875,106.19922 c 4.687455,-5.62495 10.874948,-11.18744 18.5625,-16.687505 11.937429,-8.499921 22.593668,-12.749917 31.96875,-12.75 7.4999,8.3e-5 13.99989,2.843831 19.5,8.53125 4.12489,4.250071 7.03113,9.687565 8.71875,16.312505 0.68738,2.81255 1.03113,5.7813 1.03125,8.90625 -1.2e-4,9.75003 -3.56262,19.53128 -10.6875,29.34375 -6.0001,8.25001 -12.9376,14.3125 -20.8125,18.1875 -4.812584,2.37499 -9.656329,3.56249 -14.53125,3.5625 -7.125067,-1e-5 -11.531313,-2.125 -13.21875,-6.375 -0.437561,-1.125 -0.656311,-2.375 -0.65625,-3.75 -6.1e-5,-4.74999 2.093687,-8.31249 6.28125,-10.6875 2.062431,-1.12498 4.156179,-1.68748 6.28125,-1.6875 2.249925,2e-5 4.749922,1.06251 7.5,3.1875 2.687417,2.06251 4.843665,3.21876 6.46875,3.46875 0.499912,0.0625 0.999912,0.0938 1.5,0.0937 3.62491,1e-5 6.7499,-0.90624 9.375,-2.71875 0.4999,-0.31249 0.8749,-0.62499 1.125,-0.9375 3.3749,-4.56248 5.2499,-10.24998 5.625,-17.0625 l 0,-1.3125 c -1e-4,-9.12496 -2.8751,-16.7812 -8.625,-22.96875 L 105.25,99.917965 c -4.93759,-4.937435 -10.468835,-7.406182 -16.59375,-7.40625 -7.187571,6.8e-5 -14.500064,2.593815 -21.9375,7.781255 -5.812551,4.00005 -9.968797,8.50005 -12.46875,13.5 -2.312542,4.62504 -3.562541,9.84378 -3.75,15.65625 -4e-5,0.81252 -4e-5,1.68752 0,2.625 -0.62504,53.49997 -6.156284,88.43743 -16.59375,104.8125 -3.68752,5.87491 -7.781266,10.53116 -12.28125,13.96875 -2.312509,1.7499 -4.156257,2.6249 -5.53125,2.625 -0.875005,-1e-4 -1.312505,-0.4376 -1.3125,-1.3125 -5e-6,-1.3751 1.687494,-4.18759 5.0625,-8.4375 1.499989,-1.87509 2.406238,-3.15634 2.71875,-3.84375 8.187479,-15.68757 12.281225,-54.81253 12.28125,-117.375 -2.5e-5,-13.31245 -0.562524,-21.5312 -1.6875,-24.656255 -0.937522,-2.499935 -2.593771,-3.749934 -4.96875,-3.75 -2.750015,6.6e-5 -5.250013,0.906315 -7.5,2.71875 -1.687509,1.312562 -3.156258,1.968811 -4.40625,1.96875 -0.625006,6.1e-5 -1.062505,-0.437438 -1.3125,-1.3125 -5e-6,-1.812436 1.656243,-4.531183 4.96875,-8.15625 5.249985,-5.749923 10.937479,-9.24992 17.0625,-10.5 1.249972,-0.249918 2.53122,-0.374918 3.84375,-0.375 4.499965,8.2e-5 7.374962,2.593829 8.625,7.78125 0.68746,2.750071 1.062459,6.937567 1.125,12.5625 l 0.09375,7.406255"
         id="path3029" />
      <path
         d="m 105.90625,3.355465 c 2.25003,1.568e-4 3.78128,0.9689058 4.59375,2.90625 0.31253,0.6876532 0.46878,1.4064024 0.46875,2.15625 3e-5,1.4376503 -0.46872,2.875149 -1.40625,4.3125 -2.37497,3.562644 -12.093709,13.687634 -29.15625,30.375 -8.437433,8.312609 -13.156179,12.750104 -14.15625,13.3125 -0.624927,0.437603 -1.281176,0.656353 -1.96875,0.65625 -1.374924,-0.437397 -2.187423,-1.281146 -2.4375,-2.53125 7.7e-5,-2.249892 8.562568,-13.499881 25.6875,-33.75 L 99.0625,7.480465 c 2.50004,-2.7498446 4.78128,-4.1248432 6.84375,-4.125"
         id="path3031" />
      <path
         d="m 146.5,83.417965 c -1e-5,-3.37492 1.96874,-7.031166 5.90625,-10.96875 3.18748,-3.187409 5.78123,-4.781158 7.78125,-4.78125 1.06248,9.2e-5 1.59373,0.500092 1.59375,1.5 -2e-5,0.50009 -0.37502,1.593839 -1.125,3.28125 -0.0625,0.250087 -0.0938,0.406337 -0.0937,0.46875 -2e-5,1.687586 0.68748,3.093834 2.0625,4.21875 0.56248,0.500082 1.21872,0.843832 1.96875,1.03125 7.43747,1.75008 29.81244,2.625079 67.125,2.625 43.18736,7.9e-5 69.12484,-1.03117 77.8125,-3.09375 1.62483,-0.374917 2.74983,-0.781167 3.375,-1.21875 2.56232,-1.937414 4.46857,-2.906163 5.71875,-2.90625 1.06232,8.7e-5 1.59357,0.500086 1.59375,1.5 -1.8e-4,2.062583 -1.65643,4.71883 -4.96875,7.96875 -1.50018,1.437576 -3.25017,2.906324 -5.25,4.40625 -0.68767,2.25007 -1.06267,4.625068 -1.125,7.125 -0.0627,1.437564 -0.0939,3.312562 -0.0937,5.625005 l -1.59375,83.0625 c -0.0627,0.56247 -0.0939,1.03122 -0.0937,1.40625 -1.00017,16.43745 -3.03142,29.12494 -6.09375,38.0625 -3.25016,9.56242 -8.25015,17.74991 -15,24.5625 -4.00014,4.1249 -7.18764,6.1874 -9.5625,6.1875 -0.81264,-1e-4 -1.21889,-0.40635 -1.21875,-1.21875 -1.4e-4,-1.3751 1.68736,-4.25009 5.0625,-8.625 1.62486,-2.06259 2.62486,-3.46884 3,-4.21875 4.18735,-8.50008 6.74985,-21.78131 7.6875,-39.84375 l 1.59375,-58.96875 0.0937,-1.78125 -2.15625,2.15625 c -13.81264,13.25 -27.59387,20.12499 -41.34375,20.625 -0.50011,-1e-5 -0.96886,-1e-5 -1.40625,0 -8.7501,-1e-5 -15.68759,-4.625 -20.8125,-13.875 -1.62509,-2.81249 -2.87509,-5.81249 -3.75,-9 l -2.15625,2.0625 c -12.18757,12.1875 -25.18756,19.03125 -39,20.53125 -1.62504,0.18749 -3.18754,0.28124 -4.6875,0.28125 -7.87503,-1e-5 -14.28127,-3.71875 -19.21875,-11.15625 -0.68752,-1.06249 -1.31252,-2.15624 -1.875,-3.28125 -2.43752,-4.93749 -3.65626,-10.18748 -3.65625,-15.75 -1e-5,-10.99997 4.21873,-21.9687 12.65625,-32.906255 1.18747,-1.499937 2.43747,-2.999935 3.75,-4.5 l -13.78125,-1.3125 c -3.75001,-0.624932 -6.18751,-1.999931 -7.3125,-4.125 -0.43751,-0.749928 -0.78126,-1.656177 -1.03125,-2.71875 -0.25001,-0.812425 -0.37501,-1.624924 -0.375,-2.4375 m 146.53125,29.437505 c 0.0623,-6.12495 0.43735,-10.37495 1.125,-12.75 0.74984,-2.624942 1.81234,-5.24994 3.1875,-7.875005 -1.6e-4,0.687567 -9.4064,1.281317 -28.21875,1.78125 -17.06261,0.500066 -25.84385,1.062565 -26.34375,1.6875 -1.9376,2.625062 -3.4376,6.562555 -4.5,11.812505 -0.5001,2.50005 -0.7501,4.87504 -0.75,7.125 -1e-4,12.31253 4.03115,21.34377 12.09375,27.09375 3.87489,2.68751 7.56238,4.06251 11.0625,4.125 5.99987,1e-5 11.81237,-1.34374 17.4375,-4.03125 3.62486,-1.74998 6.56235,-3.93748 8.8125,-6.5625 3.56235,-4.12498 5.56235,-9.78122 6,-16.96875 0.0623,-1.49996 0.0936,-3.31246 0.0937,-5.4375 m -58.59375,-17.906255 -45.375,-0.28125 -0.0937,0 c -7.68754,6.5e-5 -12.28129,0.812565 -13.78125,2.4375 -0.12504,0.125063 -0.21879,0.250063 -0.28125,0.375 -4.25003,5.875055 -6.40628,12.750045 -6.46875,20.625005 -3e-5,8.75003 2.68747,15.90627 8.0625,21.46875 3.12496,3.18751 6.62496,5.21876 10.5,6.09375 0.68745,0.12501 1.8437,0.18751 3.46875,0.1875 9.62494,1e-5 17.65618,-2.74999 24.09375,-8.25 2.12492,-1.74998 3.65617,-3.49998 4.59375,-5.25 1.24992,-2.31247 2.31242,-5.93747 3.1875,-10.875 1.12492,-6.43746 3.06241,-12.18745 5.8125,-17.25 0.87491,-1.56245 1.84366,-3.1562 2.90625,-4.781255 1.99991,-2.812437 3.1249,-4.312435 3.375,-4.5"
         id="path3033" />
      <path
         d="m 224.6875,13.105465 c 1e-4,-0.749852 2.3126,-3.3748496 6.9375,-7.875 3.18759,-3.124842 5.09384,-4.68734043 5.71875,-4.6875 0.87509,1.5957e-4 3.56258,2.2814073 8.0625,6.84375 3.06258,3.18765 4.59382,5.093898 4.59375,5.71875 7e-5,0.812646 -2.24992,3.437644 -6.75,7.875 -3.24992,3.187636 -5.21866,4.781384 -5.90625,4.78125 -0.87491,1.34e-4 -3.62491,-2.406113 -8.25,-7.21875 -2.9374,-3.062355 -4.40615,-4.874854 -4.40625,-5.4375 m -17.15625,24.5625 c 1.2e-4,-0.874877 2.28136,-3.531124 6.84375,-7.96875 3.25011,-3.187366 5.21885,-4.781115 5.90625,-4.78125 0.8126,1.35e-4 3.46885,2.312633 7.96875,6.9375 3.12509,3.187625 4.68759,5.093873 4.6875,5.71875 9e-5,1.000122 -2.53116,3.843869 -7.59375,8.53125 -2.9374,2.750111 -4.6249,4.12511 -5.0625,4.125 -0.8124,1.1e-4 -3.46864,-2.281138 -7.96875,-6.84375 -3.18739,-3.18738 -4.78113,-5.093628 -4.78125,-5.71875 m 34.21875,0 c 8e-5,-0.999877 2.37508,-3.749874 7.125,-8.25 3.12507,-2.999866 5.00007,-4.499865 5.625,-4.5 0.81257,1.35e-4 3.46882,2.281383 7.96875,6.84375 3.18756,3.250125 4.78131,5.187623 4.78125,5.8125 6e-5,1.000122 -2.56244,3.875119 -7.6875,8.625 -2.87493,2.687611 -4.56243,4.03136 -5.0625,4.03125 -0.68743,1.1e-4 -3.24993,-2.187388 -7.6875,-6.5625 -3.37492,-3.37488 -5.06242,-5.374878 -5.0625,-6"
         id="path3035" />
      <path
         d="m 355.09375,78.449215 c 4.93746,8.2e-5 7.93746,3.375078 9,10.125 0.43746,2.562569 0.65621,5.968816 0.65625,10.21875 -4e-5,4.875055 0.0312,7.312555 0.0937,7.312505 0.12496,5e-5 0.81246,-0.74995 2.0625,-2.25 1.93746,-2.18745 4.31245,-4.531194 7.125,-7.031255 11.18744,-9.874927 21.87493,-16.124921 32.0625,-18.75 3.18741,-0.874917 6.21866,-1.312417 9.09375,-1.3125 7.3749,8.3e-5 13.81239,2.843831 19.3125,8.53125 4.18739,4.312571 7.12488,9.750065 8.8125,16.312505 0.68738,2.81255 1.03113,5.75005 1.03125,8.8125 -1.2e-4,8.93754 -3.12512,18.15628 -9.375,27.65625 -6.06261,9.12501 -13.2501,15.75 -21.5625,19.875 -4.93758,2.43749 -9.84383,3.65624 -14.71875,3.65625 -7.93757,-1e-5 -12.59381,-2.46875 -13.96875,-7.40625 -0.25006,-0.8125 -0.37506,-1.6875 -0.375,-2.625 -6e-5,-3.18749 1.34369,-6.12499 4.03125,-8.8125 2.37493,-2.43749 5.24993,-3.65623 8.625,-3.65625 2.37492,2e-5 4.90617,1.06251 7.59375,3.1875 2.43742,2.00001 4.37491,3.15626 5.8125,3.46875 0.56241,0.0625 1.15616,0.0938 1.78125,0.0937 3.74991,1e-5 6.9999,-0.84374 9.75,-2.53125 0.1874,-0.12499 0.34365,-0.24999 0.46875,-0.375 1.7499,-1.43749 3.3124,-4.59373 4.6875,-9.46875 0.9374,-3.24998 1.40615,-6.40622 1.40625,-9.46875 -1e-4,-10.93746 -3.8751,-19.6562 -11.625,-26.156255 -4.25009,-3.562434 -9.03133,-5.343682 -14.34375,-5.34375 -7.50007,6.8e-5 -15.25006,2.937565 -23.25,8.812505 -2.37505,1.68755 -4.2813,3.3438 -5.71875,4.96875 -3.81255,4.18754 -6.53129,10.21879 -8.15625,18.09375 l -2.71875,13.40625 c -2.06254,8.31251 -5.93753,14.84375 -11.625,19.59375 l -1.21875,1.03125 c -2.68752,2.12499 -4.71877,3.18749 -6.09375,3.1875 -0.93752,-1e-5 -1.40627,-0.40626 -1.40625,-1.21875 -2e-5,-0.0625 -2e-5,-0.15626 0,-0.28125 -2e-5,-0.9375 0.68748,-2.34375 2.0625,-4.21875 2.43748,-3.4375 3.81248,-7.46874 4.125,-12.09375 0.31248,-4.31248 0.46872,-15.81247 0.46875,-34.5 -3e-5,-10.062444 -2.15627,-15.093689 -6.46875,-15.093755 -2.87502,6.6e-5 -5.37501,0.843815 -7.5,2.53125 -1.62501,1.312562 -3.12501,2.000061 -4.5,2.0625 -0.87501,6.1e-5 -1.31251,-0.468688 -1.3125,-1.40625 -1e-5,-2.687435 2.21874,-5.999931 6.65625,-9.9375 5.37498,-4.812423 10.78123,-7.71867 16.21875,-8.71875 1.06247,-0.187418 2.06247,-0.281168 3,-0.28125"
         id="path3037" />
    </g>
  </g>
</svg>
