<svg xmlns="http://www.w3.org/2000/svg" baseProfile="full" version="1.1" style="fill: none;" width="1860px" height="870px"><path style="stroke-width: 20px; stroke-linecap: square; stroke-linejoin: round; stroke: rgb(106, 106, 106); fill: rgb(106, 106, 106);" d=""/><path style="stroke-width: 35px; stroke-linecap: round; stroke-linejoin: round; stroke: rgb(0, 0, 0); fill: none;" d="M1020,360 A60,60 0 0,0 960,420 A60,60 0 0,0 1020,480 A60,60 0 0,0 1080,420 A60,60 0 0,0 1020,360 M1560,360 A60,60 0 0,0 1500,420 A60,60 0 0,0 1560,480 A60,60 0 0,0 1620,420 A60,60 0 0,0 1560,360 M1620,360 L1620,360 L1620,480 M240,780 L240,780 L60,420 M240,780 L240,780 L420,420 L240,60 L60,420 M1800,360 L1800,360 L1800,420 L1800,480 M1740,360 A60,60 0 0,0 1680,420 A60,60 0 0,0 1740,480 A60,60 0 0,0 1800,420 A60,60 0 0,0 1740,360 M1620,480 L1620,540 A60,60 0 0,1 1560,600 A60,60 0 0,1 1500,540 M1320,360 L1320,450 A60,30 0 0,0 1380,480 A60,30 0 0,0 1440,450 L1440,360 M1200,360 A60,60 0 0,0 1140,420 A60,60 0 0,0 1200,480 A60,60 0 0,0 1260,420 A60,60 0 0,0 1200,360 M1260,360 L1260,360 L1260,480 M1080,480 L1080,480 L1080,240 M780,390 A60,30 0 0,1 840,360 A60,30 0 0,1 900,390 L900,390 L900,480 M720,480 A60,60 0 0,1 660,420 L660,360 M660,300 L660,300 L660,300 M480,360 L480,360 L540,480 L540,480 L600,360 M780,480 L780,480 L780,360 "/><path style="stroke-width: 40px; stroke-linecap: round; stroke-linejoin: round; stroke: rgb(253, 253, 253); fill: rgb(253, 253, 253);" d="M240,720 L240,720 L390,420 L240,120 L90,420 L240,720 "/></svg>