<svg xmlns="http://www.w3.org/2000/svg" baseProfile="full" version="1.1" width="1455px" height="810px" style="fill: none; width: 1455px; height: 810px;"><path d="" style="stroke-width: 15; stroke-linecap: round; stroke-linejoin: round; stroke: rgb(106, 106, 106); fill: none;"/><path d="" style="stroke-width: 15; stroke-linecap: round; stroke-linejoin: round; stroke: rgb(74, 74, 74); fill: none;"/><path d="M390,180 L390,180 L420,240 L420,360 L390,420 M510,180 L510,180 L480,240 L480,360 L510,420 M600,180 L600,180 L780,180 L780,180 L690,300 L750,390 M615,180 L615,180 L615,420 M720,390 L720,390 L750,390 L750,360 M900,180 L900,180 L840,300 L915,390 M885,390 L885,390 L915,390 L915,360 M1080,180 L1080,180 L1050,240 L1110,240 L1080,180 M1035,270 L1035,270 L1125,270 L1080,420 L1035,270 M120,240 A60,60 0 0,0 60,300 A60,60 0 0,0 120,360 A60,60 0 0,0 180,300 A60,60 0 0,0 120,240 M240,240 A60,60 0 0,0 180,300 A60,60 0 0,0 240,360 A60,60 0 0,0 300,300 A60,60 0 0,0 240,240 M60,540 L60,540 L300,540 M60,600 L60,600 L300,600 M60,660 L60,660 L300,660 M480,480 L480,480 L345,720 L615,720 L480,480 M480,615 A15,15 0 0,0 465,630 A15,15 0 0,0 480,645 A15,15 0 0,0 495,630 A15,15 0 0,0 480,615 M480,630 L480,630 L480,615 M720,555 L720,555 L840,645 M720,645 L720,645 L840,555 M780,525 L780,525 L780,675 M900,600 A60,60 0 0,1 960,540 A60,60 0 0,1 1020,600 A60,60 0 0,1 960,660 A60,60 0 0,1 900,600 M930,555 L930,555 L930,645 L990,645 L990,555 M930,555 L930,555 L990,555 M915,585 L915,585 L915,615 M1005,585 L1005,585 L1005,615 M945,570 L945,570 L975,570 L975,630 L945,630 L945,570 M960,585 L960,585 L960,615 M1140,540 A60,60 0 0,0 1080,600 A60,60 0 0,0 1140,660 A60,60 0 0,0 1200,600 A60,60 0 0,0 1140,540 M1200,600 A60,120 0 0,1 1140,720 M1095,570 L1095,570 L1185,570 L1185,630 L1095,630 L1095,570 M1110,555 L1110,555 L1170,555 L1170,645 L1110,645 L1110,555 M1125,585 L1125,585 L1155,585 L1155,615 L1125,615 L1125,585 M1125,600 L1125,600 L1155,600 " style="stroke-width: 26; stroke-linecap: round; stroke-linejoin: round; stroke: rgb(10, 10, 10); fill: none;"/></svg>