<svg xmlns="http://www.w3.org/2000/svg" baseProfile="full" version="1.1" width="1455px" height="810px" style="fill: none; width: 1455px; height: 810px;"><path d="" style="stroke-width: 15; stroke-linecap: round; stroke-linejoin: round; stroke: rgb(106, 106, 106); fill: none;"/><path d="" style="stroke-width: 15; stroke-linecap: round; stroke-linejoin: round; stroke: rgb(74, 74, 74); fill: none;"/><path d="M360,360 L360,360 L585,300 M300,660 A60,60 0 0,0 360,720 A60,60 0 0,0 420,660 L420,660 A60,60 0 0,0 480,720 A60,60 0 0,0 540,660 M300,660 L300,660 L450,495 M600,690 L600,690 L840,690 M600,690 L600,690 L765,495 M660,300 A60,60 0 0,0 720,360 A60,60 0 0,0 780,300 L780,300 A60,60 0 0,0 840,360 A60,60 0 0,0 900,300 M900,690 L900,690 L1140,690 M900,690 L900,690 L1080,495 M960,360 L960,360 L1200,360 M960,360 L960,360 L1140,165 M1020,360 L1020,360 L1170,195 M60,240 L60,240 L300,240 M60,240 A120,105 0 0,1 180,135 A120,105 0 0,1 300,240 M420,180 L420,180 L660,180 M420,180 A120,105 0 0,1 540,75 A120,105 0 0,1 660,180 M495,30 L495,30 L585,30 M495,30 A45,45 0 0,0 540,75 A45,45 0 0,0 585,30 M720,120 L720,120 L795,120 A45,45 0 0,0 840,165 A45,45 0 0,0 885,120 L885,120 L960,120 M450,495 A45,45 0 0,0 405,450 A45,45 0 0,0 360,495 M765,495 A45,45 0 0,0 720,450 A45,45 0 0,0 675,495 M585,300 A75,60 0 0,0 510,240 L510,240 M1020,75 L1020,75 L1260,75 " style="stroke-width: 25; stroke-linecap: round; stroke-linejoin: round; stroke: rgb(10, 10, 10); fill: none;"/></svg>