<svg xmlns="http://www.w3.org/2000/svg" baseProfile="full" version="1.1" width="1470px" height="750px" style="fill: none; width: 1470px; height: 750px;"><path d="M60,375 L60,375 L60,330 A15,15 0 0,1 75,315 A15,15 0 0,1 90,330 L90,330 L90,360 A15,15 0 0,0 105,375 A15,15 0 0,0 120,360 L120,360 A15,15 0 0,0 135,375 A15,15 0 0,0 150,360 M120,360 L120,360 L120,315 M105,330 L105,330 L135,330 M150,360 L150,360 L150,330 A15,15 0 0,1 165,315 A15,15 0 0,1 180,330 L180,330 L180,360 A15,15 0 0,0 195,375 A15,15 0 0,0 210,360 L210,360 L210,330 A15,15 0 0,1 225,315 A15,15 0 0,1 240,330 L240,330 L240,360 A15,15 0 0,0 255,375 A15,15 0 0,0 270,360 L270,360 A15,15 0 0,0 285,375 A15,15 0 0,0 300,360 M270,360 L270,360 L270,315 M255,330 L255,330 L285,330 M300,360 L300,360 L300,330 A15,15 0 0,1 315,315 A15,15 0 0,1 330,330 L330,330 L330,375 " style="stroke-width: 31; stroke-linecap: round; stroke-linejoin: round; stroke: rgb(255, 255, 255); fill: none;"/><path d="M60,375 L60,375 L60,330 A15,15 0 0,1 75,315 A15,15 0 0,1 90,330 L90,330 L90,360 A15,15 0 0,0 105,375 A15,15 0 0,0 120,360 L120,360 A15,15 0 0,0 135,375 A15,15 0 0,0 150,360 M120,360 L120,360 L120,315 M105,330 L105,330 L135,330 M150,360 L150,360 L150,330 A15,15 0 0,1 165,315 A15,15 0 0,1 180,330 L180,330 L180,360 A15,15 0 0,0 195,375 A15,15 0 0,0 210,360 L210,360 L210,330 A15,15 0 0,1 225,315 A15,15 0 0,1 240,330 L240,330 L240,360 A15,15 0 0,0 255,375 A15,15 0 0,0 270,360 L270,360 A15,15 0 0,0 285,375 A15,15 0 0,0 300,360 M270,360 L270,360 L270,315 M255,330 L255,330 L285,330 M300,360 L300,360 L300,330 A15,15 0 0,1 315,315 A15,15 0 0,1 330,330 L330,330 L330,375 " style="stroke-width: 20; stroke-linecap: round; stroke-linejoin: round; stroke: rgb(138, 138, 138); fill: none;"/><path d="M60,375 L60,375 L60,330 A15,15 0 0,1 75,315 A15,15 0 0,1 90,330 L90,330 L90,360 A15,15 0 0,0 105,375 A15,15 0 0,0 120,360 L120,360 A15,15 0 0,0 135,375 A15,15 0 0,0 150,360 M120,360 L120,360 L120,315 M150,360 L150,360 L150,330 A15,15 0 0,1 165,315 A15,15 0 0,1 180,330 L180,330 L180,360 A15,15 0 0,0 195,375 A15,15 0 0,0 210,360 L210,360 L210,330 A15,15 0 0,1 225,315 A15,15 0 0,1 240,330 L240,330 L240,360 A15,15 0 0,0 255,375 A15,15 0 0,0 270,360 L270,360 A15,15 0 0,0 285,375 A15,15 0 0,0 300,360 M270,360 L270,360 L270,315 M300,360 L300,360 L300,330 A15,15 0 0,1 315,315 A15,15 0 0,1 330,330 L330,330 L330,375 M105,330 L105,330 L135,330 M255,330 L255,330 L285,330 " style="stroke-width: 11; stroke-linecap: round; stroke-linejoin: bevel; stroke: rgb(10, 10, 10); fill: none;"/></svg>