<svg xmlns="http://www.w3.org/2000/svg" baseProfile="full" version="1.1" width="795px" height="705px" style="fill: none; width: 795px; height: 705px;"><path d="M360,180 A120,120 0 0,0 240,300 A120,120 0 0,0 360,420 A120,120 0 0,0 480,300 A120,120 0 0,0 360,180 M360,240 A60,60 0 0,1 300,300 A60,60 0 0,1 360,360 A60,60 0 0,1 420,300 A60,60 0 0,1 360,240 " style="stroke-width: 100; stroke-linecap: round; stroke-linejoin: round; stroke: rgb(10, 10, 10); fill: none;"/><path d="M270,210 L270,210 L360,420 L450,210 " style="stroke-width: 25; stroke-linecap: round; stroke-linejoin: round; stroke: rgb(138, 138, 138); fill: none;"/><path d="M270,405 L270,405 L360,195 L450,405 " style="stroke-width: 25; stroke-linecap: round; stroke-linejoin: round; stroke: rgb(255, 255, 255); fill: none;"/></svg>